# xmcd
#
# Track frame offsets:
#	150
#	13537
#	28148
#	44685
#	58610
#	78764
#	93909
#	107156
#	130227
#	144049
#	162815
#	174266
#	192542
#	208412
#	221259
#	241550
#	256529
#	272660
#	282475
#	305048
#
# Disc length: 4232 seconds
#
# Revision: 0
# Processed by: cddbd v1.5.2PL0 Copyright (c) Steve Scherf et al.
# Submitted via: EasyCDDAExtractor 12.0.0.1
#
DISCID=12108614
DTITLE=Various Artist - Paixão Sertaneja - Especial
DYEAR=1900
DGENRE=Sertanejo
TTITLE0=Rio Negro E Solimões - Ainda Ontem Chorei De Saudade
TTITLE1=Ataide E Alexandre - Liguei Pra Dizer Que Te Amo
TTITLE2=Bruno E Marrone - Seu Amor Ainda É Tudo
TTITLE3=Milionário E José Rico - Esta Noite Como Lembraça
TTITLE4=Di Paulo E Paulinho - Tempo Ao Tempo - A Noite Do Nosso Amor
TTITLE5=Rio Negro E Solimões - Meus Pedaços
TTITLE6=Gian E Giovani - Camisa Manchada
TTITLE7=Bruno E Marrone - Tenho Ciúme De Tudo - A Dama De Vermelho - Brigas
TTITLE8=Cezar E Paulinho - Noite Maravilhosa
TTITLE9=Di Paulo E Paulinho - Pedaço Da Minha Vida - 60 Dias Apaixonado
TTITLE10=Rio Negro E Solimões - Quarto Triste
TTITLE11=Ataide E Alexandre - Laço Aberto
TTITLE12=Dois A Um - 24 Horas De Amor
TTITLE13=Bruno E Marrone - Apaixonado
TTITLE14=Di Paulo E Paulinho - Ilusão Perdida - Mulher, Sempre Mulher
TTITLE15=Ouro Preto E Boiadeiro - Duas Camisas
TTITLE16=Dois A Um - Telefone Mudo
TTITLE17=Milionário E José Rico - Ilusão Perdida - Esquecido - Vá Pro Inferno 
TTITLE17=Com Seu Amor
TTITLE18=Di Paulo E Paulinho - O Beijo Do Adeus - Sublime Renúncia - Último Ad
TTITLE18=eus
TTITLE19=Bruno E Marrone - Fio De Cabelo
EXTD=
EXTT0=
EXTT1=
EXTT2=
EXTT3=
EXTT4=
EXTT5=
EXTT6=
EXTT7=
EXTT8=
EXTT9=
EXTT10=
EXTT11=
EXTT12=
EXTT13=
EXTT14=
EXTT15=
EXTT16=
EXTT17=
EXTT18=
EXTT19=
PLAYORDER=
